# AST/ASF file generated using VICON BodyLanguage
# -----------------------------------------------
:version 1.10
:name VICON
:units
  mass 1.0
  length 0.45
  angle deg
:documentation
   .ast/.asf automatically generated from VICON data using
   VICON BodyBuilder and BodyLanguage model FoxedUp or BRILLIANT.MOD
:root
   order TX TY TZ RX RY RZ
   axis XYZ
   position 0 0 0  
   orientation 0 0 0 
:bonedata
  begin
     id 1 
     name lhipjoint
     direction 0.440178 -0.822639 0.359871 
     length 2.53113 
     axis 0 0 0  XYZ
  end
  begin
     id 2 
     name lfemur
     direction 0.34202 -0.939693 0  
     length 7.88132  
     axis 0 0 20  XYZ
    dof rx ry rz
    limits (-160.0 20.0)
           (-70.0 70.0)
           (-60.0 70.0)
  end
  begin
     id 3 
     name ltibia
     direction 0.34202 -0.939693 0   
     length 8.43783   
     axis 0 0 20   XYZ
    dof rx
    limits (-10.0 170.0)
  end
  begin
     id 4 
     name lfoot
     direction 0.0886351 -0.243523 0.965837   
     length 2.63414   
     axis -90 7.62852e-016 20   XYZ
    dof rx rz
    limits (-45.0 90.0)
           (-70.0 20.0)
  end
  begin
     id 5 
     name ltoes
     direction 1.53703e-011 -4.21717e-011 1   
     length 1.31427   
     axis -90 7.62852e-016 20   XYZ
    dof rx
    limits (-90.0 20.0)
  end
  begin
     id 6 
     name rhipjoint
     direction -0.399779 -0.839773 0.367367   
     length 2.47948  
     axis 0 0 0  XYZ 
  end
  begin
     id 7 
     name rfemur
     direction -0.34202 -0.939693 0   
     length 7.74806   
     axis 0 0 -20   XYZ
    dof rx ry rz
    limits (-160.0 20.0)
           (-70.0 70.0)
           (-70.0 60.0)
  end
  begin
     id 8 
     name rtibia
     direction -0.34202 -0.939693 0   
     length 8.74432   
     axis 0 0 -20   XYZ
    dof rx
    limits (-10.0 170.0)
 end
 begin
     id 9 
     name rfoot
     direction -0.108514 -0.298139 0.948334   
     length 2.66102  
     axis -90 -7.62852e-016 -20   XYZ
    dof rx rz
    limits (-45.0 90.0)
           (-20.0 70.0)
  end
  begin
     id 10 
     name rtoes
     direction -1.53392e-011 -4.22077e-011 1   
     length 1.31983   
     axis -90 -7.62852e-016 -20   XYZ
    dof rx
    limits (-90.0 20.0)
  end
  begin
     id 11 
     name lowerback
     direction 0.0113257 0.999866 0.0118602   
     length 2.58694   
     axis 0 0 0   XYZ
    dof rx ry rz
    limits (-20.0 45.0)
           (-30.0 30.0)
           (-30.0 30.0)
  end
  begin
     id 12 
     name upperback
     direction -0.0164747 0.995193 -0.0965375   
     length 2.52368   
     axis 0 0 0   XYZ
    dof rx ry rz
    limits (-20.0 45.0)
           (-30.0 30.0)
           (-30.0 30.0)
  end
  begin
     id 13 
     name thorax
     direction -0.0194301 0.99433 -0.104552   
     length 2.56099   
     axis 0 0 0   XYZ
    dof rx ry rz
    limits (-20.0 45.0)
           (-30.0 30.0)
           (-30.0 30.0)
  end
  begin
     id 14 
     name lowerneck
     direction 0.0148543 0.995587 -0.092657   
     length 1.71582   
     axis 0 0 0   XYZ
    dof rx ry rz
    limits (-20.0 45.0)
           (-30.0 30.0)
           (-30.0 30.0)
  end
  begin
     id 15 
     name upperneck
     direction -0.0135467 0.993656 -0.111639   
     length 1.68937   
     axis 0 0 0   XYZ
    dof rx ry rz
    limits (-20.0 45.0)
           (-30.0 30.0)
           (-30.0 30.0)
  end
  begin
     id 16
     name head
     direction -0.00615349 0.999547 -0.029448  
     length 1.7462  
     axis 0 0 0   XYZ
    dof rx ry rz
    limits (-20.0 45.0)
           (-30.0 30.0)
           (-30.0 30.0)
  end
  begin
     id 17 
     name lclavicle
     direction 0.988267 0.149885 0.0293713  
     length 4.47222  
     axis 0 0 0   XYZ
    dof ry rz
    limits (-20.0 10.0)
           (0.0 20.0)
  end
  begin
     id 18 
     name lhumerus
     direction 1 -4.48986e-011 -1.14833e-027   
     length 5.37148   
     axis 180 -30 -90   XYZ
    dof rx ry rz
    limits (-60.0 90.0)
           (-90.0 90.0)
           (-90.0 90.0)
  end
  begin
     id 19
     name lradius
     direction 0.999998 0.00170963 -0.000987055   
     length 3.94212   
     axis 180 -30 -90   XYZ
    dof rx
    limits (-10.0 170.0)
  end
  begin
     id 20
     name lwrist
     direction 0.999998 7.53149e-005 -0.00194706   
     length 1.97106   
     axis 4.65056e-015 90 90   XYZ
    dof ry
    limits (-180.0 0.0)
 end
  begin
     id 21 
     name lhand
     direction 1 -4.48973e-011 -1.31746e-026   
     length 1.17917   
     axis 8.4065e-015 90 90   XYZ
    dof rx rz
    limits (-90.0 90.0)
           (-45.0 45.0)
  end
  begin
     id 22 
     name lfingers
     direction 1 -4.49107e-011 -2.63492e-026   
     length 0.950679   
     axis 1.6813e-014 90 90   XYZ
    dof rx
    limits (0.0 90.0)
  end
  begin
     id 23
     name lthumb
     direction 0.707107 -6.35048e-011 0.707107   
     length 1.36499   
     axis -90 45 2.85299e-015   XYZ
    dof rx rz
    limits (-45.0 45.0)
           (-45.0 45.0)
  end
  begin
     id 24 
     name rclavicle
     direction -0.996699 0.0642895 -0.0495725   
     length 4.62611  
     axis 0 0 0   XYZ 
    dof ry rz
    limits (-10.0 20.0)
           (-20.0 0.0)
  end
  begin
     id 25 
     name rhumerus
     direction -1 -4.48919e-011 -2.41059e-027  
     length 5.4981   
     axis 180 30 90   XYZ
    dof rx ry rz
    limits (-90.0 60.0)
           (-90.0 90.0)
           (-90.0 90.0)
  end
  begin
     id 26 
     name rradius
     direction -0.999999 0.00118101 -0.000681858   
     length 3.48381   
     axis 180 30 90   XYZ
    dof rx
    limits (-10.0 170.0)
  end
  begin
     id 27 
     name rwrist
     direction -0.999999 0.000321823 -0.00132288   
     length 1.7419   
     axis 4.65056e-015 -90 -90   XYZ
    dof ry
    limits (-180.0 0.0)
  end
  begin
     id 28
     name rhand
     direction -1 -4.49022e-011 -1.31746e-026   
     length 1.34932   
     axis 8.4065e-015 -90 -90   XYZ
    dof rx rz
    limits (-90.0 90.0)
           (-45.0 45.0)
  end
  begin
     id 29
     name rfingers
     direction -1 -4.49178e-011 -2.63492e-026   
     length 1.08785   
     axis 1.6813e-014 -90 -90   XYZ
    dof rx
    limits (0.0 90.0)
  end
  begin
     id 30
     name rthumb
     direction -0.707107 -6.34713e-011 0.707107   
     length 1.56195   
     axis -90 -45 -2.85299e-015   XYZ
    dof rx rz
    limits (-45.0 45.0)
           (-45.0 45.0)
  end
:hierarchy
  begin
    root lhipjoint rhipjoint lowerback
    lhipjoint lfemur
    lfemur ltibia
    ltibia lfoot
    lfoot ltoes
    rhipjoint rfemur
    rfemur rtibia
    rtibia rfoot
    rfoot rtoes
    lowerback upperback
    upperback thorax
    thorax lowerneck lclavicle rclavicle
    lowerneck upperneck
    upperneck head
    lclavicle lhumerus
    lhumerus lradius
    lradius lwrist
    lwrist lhand lthumb
    lhand lfingers
    rclavicle rhumerus
    rhumerus rradius
    rradius rwrist
    rwrist rhand rthumb
    rhand rfingers
  end

#!OML:ASF X:\für Bonn\!DataBase\2005_08_10_Bjorn_Final\c3d\bjorn.ASF
:FULLY-SPECIFIED
:DEGREES
16
root 0.599207 19.1889 2.67619 -175.836 -11.1109 -180.794
lowerback -7.943 1.15861 0.996762
upperback 4.77446 1.24582 1.06113
thorax 9.54275 0.586663 0.763598
lowerneck -6.28778 0.641851 -3.54808
upperneck 22.8563 1.46913 -7.96449
head 8.15962 -0.997169 -2.02003
rclavicle -6.48038e-014 -1.66979e-014
rhumerus -42.5635 -33.8714 -65.0832
rradius 19.1969
rwrist 21.9181
rhand -15.7512 14.4107
rfingers 7.12502
rthumb 10.4402 -15.31
lclavicle -6.48038e-014 -1.66979e-014
lhumerus -34.175 -38.902 87.1775
lradius 37.6769
lwrist -5.01006
lhand -20.9407 -14.5391
lfingers 7.12502
lthumb 5.43163 15.3712
rfemur -12.4162 -19.7077 17.968
rtibia 30.8355
rfoot -22.5073 -1.89312
rtoes -18.6607
lfemur -18.0713 11.3655 -19.8704
ltibia 32.4376
lfoot -11.3106 -16.8636
ltoes 7.34975
17
root 0.58069 19.1875 2.67447 -175.894 -11.4081 -180.774
lowerback -7.8514 1.13145 0.761657
upperback 4.84898 1.24286 0.985233
thorax 9.56619 0.572009 0.813373
lowerneck -6.22996 0.565047 -3.54475
upperneck 22.6476 1.3492 -7.82205
head 8.07361 -1.01544 -1.97564
rclavicle -1.95803e-014 -7.95139e-015
rhumerus -42.5567 -32.9284 -66.1314
rradius 19.8996
rwrist 20.2623
rhand -15.7132 14.4349
rfingers 7.12502
rthumb 10.4769 -15.284
lclavicle -1.95803e-014 -7.95139e-015
lhumerus -34.0656 -39.1271 86.5163
lradius 38.4037
lwrist -4.72258
lhand -21.4858 -14.5659
lfingers 7.12502
lthumb 4.90525 15.3573
rfemur -12.3065 -19.5765 17.9401
rtibia 30.8777
rfoot -22.6848 -2.24487
rtoes -18.3449
lfemur -17.9907 11.0562 -19.891
ltibia 32.4017
lfoot -11.1813 -16.9346
ltoes 7.79889
18
root 0.562165 19.1864 2.67343 -175.965 -11.7078 -180.756
lowerback -7.75582 1.08864 0.50264
upperback 4.93901 1.21858 0.923185
thorax 9.60382 0.544043 0.888009
lowerneck -6.23302 0.491173 -3.53218
upperneck 22.4734 1.24041 -7.69018
head 8.01127 -1.03211 -1.93688
rclavicle 6.16232e-015 5.56597e-015
rhumerus -42.5084 -32.0718 -67.082
rradius 20.5396
rwrist 18.9954
rhand -15.6631 14.3859
rfingers 7.12502
rthumb 10.5251 -15.3306
lclavicle 6.16232e-015 5.56597e-015
lhumerus -33.9675 -39.2941 85.8799
lradius 39.1035
lwrist -4.35432
lhand -21.9624 -14.5315
lfingers 7.12502
lthumb 4.44507 15.4019
rfemur -12.1826 -19.4101 17.903
rtibia 30.9375
rfoot -22.8667 -2.58767
rtoes -18.0574
lfemur -17.8915 10.6932 -19.9064
ltibia 32.358
lfoot -10.9983 -16.966
ltoes 8.56256
19
root 0.543874 19.1859 2.67348 -176.05 -11.9894 -180.755
lowerback -7.63039 1.04512 0.219241
upperback 5.0333 1.19536 0.859045
thorax 9.62823 0.514525 0.973638
lowerneck -6.28588 0.42782 -3.52075
upperneck 22.3457 1.15062 -7.55761
head 7.97451 -1.04401 -1.89782
rclavicle 1.26228e-014 0
rhumerus -42.4212 -31.2799 -67.9308
rradius 21.0738
rwrist 18.0893
rhand -15.5626 14.3001
rfingers 7.12502
rthumb 10.6221 -15.4115
lclavicle 1.26228e-014 0
lhumerus -33.9077 -39.4278 85.2611
lradius 39.8072
lwrist -3.96862
lhand -22.3299 -14.4592
lfingers 7.12502
lthumb 4.09022 15.4813
rfemur -12.0538 -19.1702 17.8475
rtibia 31.0141
rfoot -23.0546 -3.04013
rtoes -18.2237
lfemur -17.7744 10.2931 -19.9453
ltibia 32.3103
lfoot -10.9283 -16.9172
ltoes 8.79268
20
root 0.525114 19.1857 2.67395 -176.135 -12.2629 -180.717
lowerback -7.51416 0.998394 -0.0374059
upperback 5.13192 1.16128 0.814446
thorax 9.6636 0.479994 1.0636
lowerneck -6.30869 0.362798 -3.49372
upperneck 22.1442 1.06028 -7.45152
head 7.90783 -1.05219 -1.86831
rclavicle 1.33186e-014 -3.97569e-015
rhumerus -42.3035 -30.605 -68.6594
rradius 21.5157
rwrist 17.5472
rhand -15.4486 14.1836
rfingers 7.12502
rthumb 10.7321 -15.5222
lclavicle 1.33186e-014 -3.97569e-015
lhumerus -33.8588 -39.4942 84.6569
lradius 40.5363
lwrist -3.52826
lhand -22.4899 -14.4169
lfingers 7.12502
lthumb 3.93569 15.5265
rfemur -11.936 -18.9052 17.8316
rtibia 31.106
rfoot -23.1887 -3.53861
rtoes -18.8909
lfemur -17.6651 9.93198 -19.9477
ltibia 32.2604
lfoot -10.8282 -16.8996
ltoes 9.14455
21
root 0.506162 19.1848 2.6758 -176.222 -12.5202 -180.719
lowerback -7.39371 0.960266 -0.307732
upperback 5.25077 1.14249 0.727101
thorax 9.71944 0.45268 1.11825
lowerneck -6.38263 0.28709 -3.41434
upperneck 21.9551 0.95539 -7.33838
head 7.85428 -1.06218 -1.84704
rclavicle 1.55052e-014 -4.37326e-015
rhumerus -42.1383 -29.8994 -69.4555
rradius 21.9327
rwrist 17.1866
rhand -15.3721 13.9523
rfingers 7.12502
rthumb 10.8058 -15.7497
lclavicle 1.55052e-014 -4.37326e-015
lhumerus -33.755 -39.5888 83.9973
lradius 41.2313
lwrist -3.13495
lhand -22.5908 -14.4316
lfingers 7.12502
lthumb 3.83824 15.5136
rfemur -11.829 -18.5396 17.7734
rtibia 31.2287
rfoot -23.2957 -4.16088
rtoes -19.7662
lfemur -17.5376 9.53304 -19.9926
ltibia 32.2045
lfoot -10.7669 -16.8109
ltoes 9.31173
22
root 0.486477 19.1856 2.67935 -176.309 -12.7284 -180.716
lowerback -7.23867 0.942107 -0.572767
upperback 5.33624 1.14993 0.645858
thorax 9.71755 0.438948 1.17931
lowerneck -6.40893 0.214927 -3.37548
upperneck 21.807 0.84328 -7.17758
head 7.80558 -1.07838 -1.80473
rclavicle 2.48481e-016 -9.14409e-015
rhumerus -42.028 -29.2535 -70.1022
rradius 22.2616
rwrist 17.0685
rhand -15.2801 13.767
rfingers 7.12502
rthumb 10.8946 -15.9303
lclavicle 2.48481e-016 -9.14409e-015
lhumerus -33.7265 -39.6804 83.4279
lradius 41.9274
lwrist -2.69812
lhand -22.5765 -14.5184
lfingers 7.12502
lthumb 3.85206 15.4265
rfemur -11.7477 -18.0027 17.7193
rtibia 31.3949
rfoot -23.4005 -4.81326
rtoes -20.5678
lfemur -17.4123 9.14908 -20.048
ltibia 32.1418
lfoot -10.7474 -16.6608
ltoes 9.32333
23
root 0.465852 19.1851 2.68529 -176.416 -12.887 -180.714
lowerback -7.05576 0.942436 -0.835048
upperback 5.44677 1.17822 0.566316
thorax 9.72627 0.433996 1.24338
lowerneck -6.46735 0.129349 -3.37913
upperneck 21.6271 0.720172 -6.99508
head 7.75228 -1.09876 -1.74853
rclavicle 4.18442e-014 -1.51076e-014
rhumerus -41.8656 -28.6116 -70.7364
rradius 22.5381
rwrist 17.1307
rhand -15.2582 13.5843
rfingers 7.12502
rthumb 10.9157 -16.1119
lclavicle 4.18442e-014 -1.51076e-014
lhumerus -33.657 -39.658 82.834
lradius 42.6608
lwrist -2.48386
lhand -22.4529 -14.7639
lfingers 7.12502
lthumb 3.97141 15.1788
rfemur -11.6827 -17.3044 17.6639
rtibia 31.6155
rfoot -23.4775 -5.55377
rtoes -21.5315
lfemur -17.2643 8.7297 -20.1024
ltibia 32.0774
lfoot -10.7464 -16.4319
ltoes 9.30504
24
root 0.444839 19.1858 2.69379 -176.534 -13.0323 -180.714
lowerback -6.84938 0.935955 -1.08737
upperback 5.56356 1.19308 0.492952
thorax 9.72832 0.422187 1.30579
lowerneck -6.54232 0.0616233 -3.4324
upperneck 21.4645 0.626351 -6.80254
head 7.70899 -1.11079 -1.67913
rclavicle 5.57094e-014 -8.54774e-015
rhumerus -41.6631 -27.9363 -71.3372
rradius 22.7807
rwrist 17.2989
rhand -15.1904 13.3909
rfingers 7.12502
rthumb 10.9811 -16.3019
lclavicle 5.57094e-014 -8.54774e-015
lhumerus -33.568 -39.5775 82.2713
lradius 43.3999
lwrist -2.30733
lhand -22.3331 -15.1379
lfingers 7.12502
lthumb 4.08716 14.8026
rfemur -11.64 -16.5064 17.5983
rtibia 31.892
rfoot -23.5199 -6.33639
rtoes -22.7482
lfemur -17.1145 8.32356 -20.1616
ltibia 32.0239
lfoot -10.7068 -16.1973
ltoes 9.4072
25
root 0.42469 19.1849 2.70252 -176.643 -13.1548 -180.712
lowerback -6.63623 0.960434 -1.31914
upperback 5.66322 1.24963 0.387334
thorax 9.7072 0.433773 1.32804
lowerneck -6.56519 -0.0345661 -3.43888
upperneck 21.2805 0.482294 -6.60678
head 7.64813 -1.14064 -1.61999
rclavicle 4.91992e-015 -3.57812e-015
rhumerus -41.5417 -27.3228 -71.909
rradius 23.0052
rwrist 17.5367
rhand -15.1647 13.2949
rfingers 7.12502
rthumb 11.0059 -16.3966
lclavicle 4.91992e-015 -3.57812e-015
lhumerus -33.4689 -39.5156 81.6959
lradius 44.1373
lwrist -2.36091
lhand -22.3209 -15.6721
lfingers 7.12502
lthumb 4.0989 14.2682
rfemur -11.6573 -15.6063 17.5422
rtibia 32.2379
rfoot -23.4982 -7.14987
rtoes -23.4876
lfemur -16.9932 7.99221 -20.2208
ltibia 31.9962
lfoot -10.6913 -16.0223
ltoes 9.43387
26
root 0.404505 19.1807 2.71404 -176.761 -13.2566 -180.75
lowerback -6.37897 1.01015 -1.55905
upperback 5.76448 1.34115 0.242646
thorax 9.66097 0.462985 1.31704
lowerneck -6.60612 -0.153622 -3.49091
upperneck 21.1287 0.296435 -6.29809
head 7.60075 -1.18431 -1.5203
rclavicle -1.36664e-015 -6.95746e-016
rhumerus -41.4293 -26.7734 -72.4465
rradius 23.167
rwrist 17.8513
rhand -15.1594 13.2534
rfingers 7.12502
rthumb 11.011 -16.4378
lclavicle -1.36664e-015 -6.95746e-016
lhumerus -33.3362 -39.5178 81.1074
lradius 44.9595
lwrist -2.44297
lhand -22.3167 -16.2086
lfingers 7.12502
lthumb 4.10296 13.7316
rfemur -11.6925 -14.6358 17.4298
rtibia 32.6627
rfoot -23.4556 -7.92665
rtoes -24.3181
lfemur -16.8717 7.60849 -20.3197
ltibia 31.999
lfoot -10.6605 -15.7985
ltoes 9.71184
27
root 0.384906 19.1734 2.72622 -176.9 -13.3505 -180.786
lowerback -6.11062 1.05391 -1.80922
upperback 5.88508 1.42045 0.111441
thorax 9.62917 0.48352 1.32375
lowerneck -6.65678 -0.270106 -3.56084
upperneck 20.943 0.120976 -6.0025
head 7.5451 -1.22425 -1.4208
rclavicle -8.13775e-015 2.78299e-015
rhumerus -41.2944 -26.1848 -72.9716
rradius 23.3293
rwrist 18.1231
rhand -15.1646 13.3066
rfingers 7.12502
rthumb 11.006 -16.3849
lclavicle -8.13775e-015 2.78299e-015
lhumerus -33.1167 -39.381 80.525
lradius 45.8038
lwrist -2.74182
lhand -22.442 -16.7569
lfingers 7.12502
lthumb 3.98196 13.1856
rfemur -11.7549 -13.7406 17.2947
rtibia 33.189
rfoot -23.3611 -8.54695
rtoes -25.4009
lfemur -16.7393 7.29751 -20.4199
ltibia 32.0094
lfoot -10.6608 -15.6033
ltoes 9.64723
